<svg width="66" height="65" viewBox="0 0 66 65" fill="none" xmlns="http://www.w3.org/2000/svg">
<rect width="66" height="65" rx="10" fill="#F6F8FF"/>
<path d="M26.6111 26.1499L26.8386 26.1304C26.9247 26.1207 27.0027 26.0898 27.0677 26.0443L27.0661 26.0459C27.2838 26.7967 27.5504 27.5865 27.8835 28.4136C28.3109 29.4959 28.7318 30.3848 29.203 31.2428L29.138 31.1128C29.099 31.7043 29.0519 32.3121 28.9901 32.9004C28.9609 33.2628 28.8894 33.6008 28.7805 33.9193L28.7886 33.89C28.7691 33.8982 28.7415 37.2701 28.7415 37.2701C28.7431 39.4688 30.2658 41.31 32.3134 41.7992L32.3459 41.8057C32.4385 41.57 32.6628 41.4059 32.926 41.4059H33.8588C34.1204 41.4091 34.3447 41.5716 34.4373 41.8008L34.4389 41.8057C36.5239 41.3149 38.0531 39.4737 38.0612 37.2734C38.0612 37.2734 38.0043 33.9144 37.9751 33.8917C37.8857 33.6073 37.8142 33.2725 37.7768 32.928L37.7752 32.9036C37.7183 32.3121 37.6809 31.719 37.6273 31.1161C38.0287 30.3913 38.4496 29.504 38.8201 28.5891L38.8818 28.4169C39.215 27.5897 39.4733 26.8016 39.6992 26.0492C39.7626 26.0947 39.8406 26.1255 39.9251 26.1353H39.9267L40.1559 26.1548C40.4321 26.184 40.6759 25.9565 40.6986 25.6039L40.9456 22.4659C40.9456 22.4643 40.9456 22.4627 40.9456 22.4627C40.9456 22.1978 40.7474 21.98 40.4923 21.9475H40.489H40.4614C40.5248 21.4909 40.5605 20.9644 40.5605 20.4297C40.5605 19.2629 40.3883 18.1352 40.0681 17.074L40.0892 17.1569C39.1516 15.0996 37.2925 13.6061 35.0532 13.1885L35.011 13.182C34.5299 13.0829 33.9693 13.0163 33.3973 13H33.3827H33.3632C32.7798 13.0114 32.2191 13.0764 31.6764 13.1918L31.7349 13.182C29.4565 13.611 27.6007 15.1044 26.6744 17.113L26.6566 17.1569C26.3543 18.1319 26.1804 19.2532 26.1804 20.4135C26.1804 20.9546 26.2178 21.4876 26.2909 22.0077L26.2844 21.9475C26.0261 21.9768 25.8262 22.1929 25.8262 22.4562V22.4675L26.0732 25.6055C26.0959 25.9663 26.3429 26.184 26.6094 26.1548L26.6111 26.1499Z" fill="#F7DECE"/>
<path d="M50.8034 46.9178C50.6897 41.9776 50.1957 40.8596 49.9291 40.1023C49.8235 39.7984 49.7374 37.7443 46.3443 36.4118C44.2642 35.5928 41.5796 35.5765 39.3078 34.6161V37.2877C39.3029 40.1608 37.2456 42.5512 34.5237 43.0729L34.4863 43.0794C34.4359 43.3752 34.1824 43.5962 33.8785 43.5994H33.8493V45.6145C33.8493 47.584 35.4451 49.1798 37.4146 49.1798C39.3842 49.1798 40.98 47.584 40.98 45.6145V44.2072C39.992 44.0593 39.2428 43.2175 39.2428 42.2002C39.2428 41.0806 40.1512 40.1722 41.2709 40.1722C42.3905 40.1722 43.2989 41.0806 43.2989 42.2002C43.2989 43.0875 42.7285 43.8415 41.9355 44.1178L41.9209 44.1227V45.6145V45.6908C41.9209 48.1804 39.9026 50.1987 37.413 50.1987C34.9234 50.1987 32.9051 48.1804 32.9051 45.6908C32.9051 45.6632 32.9051 45.6372 32.9051 45.6096V45.6128V43.5799C32.6159 43.5604 32.3819 43.3426 32.3363 43.0631V43.0599C29.59 42.5252 27.5424 40.1429 27.5359 37.2812V34.5885C25.2544 35.5684 22.5535 35.5879 20.4621 36.4086C17.0592 37.7395 16.9812 39.7887 16.8772 40.0974C16.6172 40.8579 16.1167 41.9711 16.003 46.9145C15.9835 47.5645 16.003 48.5607 17.9628 49.4317C22.2302 51.1055 27.7277 51.6255 33.1472 51.9993H33.6673C39.0982 51.6288 44.5876 51.1104 48.8517 49.4317C50.8034 48.5656 50.8213 47.5743 50.8034 46.9178ZM26.9461 44.9027H24.9212V46.9356H23.4749V44.9092H21.4501V43.4629H23.4749V41.4381H24.9212V43.4629H26.9461V44.9027Z" fill="#00B8BA"/>
<path d="M42.367 42.1837C42.367 41.5791 41.8779 41.0884 41.2733 41.0884C40.6688 41.0884 40.1797 41.5775 40.1797 42.182C40.1797 42.7866 40.6688 43.2757 41.2733 43.2757C41.8762 43.2757 42.3654 42.7866 42.367 42.1837Z" fill="black"/>
</svg>
